<!DOCTYPE svg PUBLIC "-//W3C//DTD SVG 1.1//EN" "http://www.w3.org/Graphics/SVG/1.1/DTD/svg11.dtd">
<!-- Uploaded to: SVG Repo, www.svgrepo.com, Transformed by: SVG Repo Mixer Tools -->
<svg width="800px" height="800px" viewBox="0 -0.5 25 25" fill="none" xmlns="http://www.w3.org/2000/svg">
<g id="SVGRepo_bgCarrier" stroke-width="0"/>
<g id="SVGRepo_tracerCarrier" stroke-linecap="round" stroke-linejoin="round"/>
<g id="SVGRepo_iconCarrier"> <path d="M9.41728 18.9999C9.41728 19.4142 9.75307 19.7499 10.1673 19.7499C10.5815 19.7499 10.9173 19.4142 10.9173 18.9999H9.41728ZM10.1673 16.6669H9.41728H10.1673ZM14.0853 18.9999C14.0853 19.4142 14.4211 19.7499 14.8353 19.7499C15.2495 19.7499 15.5853 19.4142 15.5853 18.9999H14.0853ZM10.1673 19.7499C10.5815 19.7499 10.9173 19.4142 10.9173 18.9999C10.9173 18.5857 10.5815 18.2499 10.1673 18.2499V19.7499ZM7.83328 18.9999L7.82564 19.7499H7.83328V18.9999ZM5.80128 17.2529L5.0518 17.2807C5.05294 17.3116 5.056 17.3424 5.06095 17.373L5.80128 17.2529ZM5.53228 9.99395L6.28177 9.96617C6.2805 9.93188 6.27687 9.8977 6.27092 9.8639L5.53228 9.99395ZM6.64428 7.74195L6.3033 7.07392L6.29848 7.07642L6.64428 7.74195ZM11.5793 5.22295L11.9203 5.89096L11.9218 5.89017L11.5793 5.22295ZM13.4243 5.22295L13.0818 5.89017L13.0833 5.89096L13.4243 5.22295ZM18.3593 7.74195L18.7051 7.07641L18.7003 7.07394L18.3593 7.74195ZM19.4713 9.99395L18.7326 9.8639C18.7267 9.89767 18.7231 9.93181 18.7218 9.96607L19.4713 9.99395ZM19.2013 17.2529L19.9416 17.373C19.9466 17.3425 19.9496 17.3117 19.9508 17.2808L19.2013 17.2529ZM17.1693 18.9999V19.75L17.1769 19.7499L17.1693 18.9999ZM14.8353 18.2499C14.4211 18.2499 14.0853 18.5857 14.0853 18.9999C14.0853 19.4142 14.4211 19.7499 14.8353 19.7499V18.2499ZM10.1673 18.2499C9.75307 18.2499 9.41728 18.5857 9.41728 18.9999C9.41728 19.4142 9.75307 19.7499 10.1673 19.7499V18.2499ZM14.8353 19.7499C15.2495 19.7499 15.5853 19.4142 15.5853 18.9999C15.5853 18.5857 15.2495 18.2499 14.8353 18.2499V19.7499ZM10.9173 18.9999V16.6669H9.41728V18.9999H10.9173ZM10.9173 16.6669C10.9173 15.7921 11.6265 15.0829 12.5013 15.0829V13.5829C10.798 13.5829 9.41728 14.9637 9.41728 16.6669H10.9173ZM12.5013 15.0829C13.3761 15.0829 14.0853 15.7921 14.0853 16.6669H15.5853C15.5853 14.9637 14.2045 13.5829 12.5013 13.5829V15.0829ZM14.0853 16.6669V18.9999H15.5853V16.6669H14.0853ZM10.1673 18.2499H7.83328V19.7499H10.1673V18.2499ZM7.84092 18.25C7.1937 18.2434 6.64521 17.7718 6.54162 17.1329L5.06095 17.373C5.28137 18.7325 6.44847 19.7359 7.82564 19.7499L7.84092 18.25ZM6.55077 17.2252L6.28177 9.96617L4.7828 10.0217L5.0518 17.2807L6.55077 17.2252ZM6.27092 9.8639C6.16697 9.27348 6.45811 8.68388 6.99008 8.40747L6.29848 7.07642C5.18533 7.65481 4.57613 8.88855 4.79364 10.124L6.27092 9.8639ZM6.98526 8.40996L11.9203 5.89096L11.2383 4.55494L6.30331 7.07394L6.98526 8.40996ZM11.9218 5.89017C12.2859 5.70328 12.7177 5.70328 13.0818 5.89017L13.7668 4.55573C12.9727 4.14809 12.0309 4.14809 11.2368 4.55573L11.9218 5.89017ZM13.0833 5.89096L18.0183 8.40996L18.7003 7.07394L13.7653 4.55494L13.0833 5.89096ZM18.0135 8.40747C18.5455 8.68388 18.8366 9.27348 18.7326 9.8639L20.2099 10.124C20.4274 8.88855 19.8182 7.65481 18.7051 7.07642L18.0135 8.40747ZM18.7218 9.96607L18.4518 17.2251L19.9508 17.2808L20.2208 10.0218L18.7218 9.96607ZM18.461 17.1329C18.3574 17.7718 17.8089 18.2434 17.1616 18.25L17.1769 19.7499C18.5541 19.7359 19.7212 18.7325 19.9416 17.373L18.461 17.1329ZM17.1693 18.2499H14.8353V19.7499H17.1693V18.2499ZM10.1673 19.7499H14.8353V18.2499H10.1673V19.7499Z" fill="#cdcdcd"/> </g>
</svg>